<svg width="41" height="40" viewBox="0 0 41 40" fill="none" xmlns="http://www.w3.org/2000/svg">
<path fill-rule="evenodd" clip-rule="evenodd" d="M20.505 8C20.935 8 21.3474 8.17088 21.6514 8.47506C21.9554 8.77924 22.1263 9.19179 22.1263 9.62196V30.378C22.1263 30.591 22.0843 30.802 22.0028 30.9987C21.9214 31.1955 21.802 31.3743 21.6514 31.5249C21.5009 31.6756 21.3221 31.795 21.1254 31.8765C20.9287 31.958 20.7179 32 20.505 32C20.2921 32 20.0813 31.958 19.8846 31.8765C19.6879 31.795 19.5092 31.6756 19.3586 31.5249C19.2081 31.3743 19.0887 31.1955 19.0072 30.9987C18.9257 30.802 18.8838 30.591 18.8838 30.378V9.61122C18.8866 9.18291 19.0587 8.77311 19.3624 8.47126C19.6662 8.1694 20.0769 7.99999 20.505 8Z" fill="#959595"/>
<path fill-rule="evenodd" clip-rule="evenodd" d="M32.5 20.0018C32.5 20.432 32.3292 20.8446 32.0252 21.1487C31.7211 21.4529 31.3087 21.6238 30.8788 21.6238H10.1212C9.69126 21.6238 9.27889 21.4529 8.97485 21.1487C8.67081 20.8446 8.5 20.432 8.5 20.0018C8.5 19.5717 8.67081 19.1591 8.97485 18.8549C9.27889 18.5508 9.69126 18.3799 10.1212 18.3799H30.877C31.09 18.3796 31.301 18.4214 31.4979 18.5028C31.6949 18.5842 31.8738 18.7037 32.0245 18.8543C32.1753 19.0049 32.2948 19.1838 32.3764 19.3807C32.458 19.5776 32.5 19.7887 32.5 20.0018Z" fill="#959595"/>
</svg>
